<mxfile host="65bd71144e">
    <diagram id="M5mrPxtPSn9jRvUNtsNj" name="关系图">
        <mxGraphModel dx="2218" dy="1109" grid="1" gridSize="10" guides="1" tooltips="1" connect="1" arrows="1" fold="1" page="1" pageScale="1" pageWidth="1169" pageHeight="827" math="0" shadow="0">
            <root>
                <mxCell id="0"/>
                <mxCell id="1" parent="0"/>
                <mxCell id="yGFgOI4xTELYcyKvfJG_-43" value="回款" style="edgeStyle=none;html=1;" parent="1" source="yGFgOI4xTELYcyKvfJG_-23" target="yGFgOI4xTELYcyKvfJG_-25" edge="1">
                    <mxGeometry relative="1" as="geometry"/>
                </mxCell>
                <mxCell id="yGFgOI4xTELYcyKvfJG_-23" value="甲方/项目" style="swimlane;whiteSpace=wrap;html=1;" parent="1" vertex="1">
                    <mxGeometry x="40" y="400" width="200" height="160" as="geometry"/>
                </mxCell>
                <mxCell id="yGFgOI4xTELYcyKvfJG_-18" value="客户" style="shape=umlActor;verticalLabelPosition=bottom;verticalAlign=top;html=1;outlineConnect=0;" parent="yGFgOI4xTELYcyKvfJG_-23" vertex="1">
                    <mxGeometry x="40" y="54" width="30" height="60" as="geometry"/>
                </mxCell>
                <mxCell id="yGFgOI4xTELYcyKvfJG_-28" style="edgeStyle=none;html=1;" parent="1" source="yGFgOI4xTELYcyKvfJG_-24" target="yGFgOI4xTELYcyKvfJG_-26" edge="1">
                    <mxGeometry relative="1" as="geometry"/>
                </mxCell>
                <mxCell id="yGFgOI4xTELYcyKvfJG_-29" value="采购" style="edgeLabel;html=1;align=center;verticalAlign=middle;resizable=0;points=[];" parent="yGFgOI4xTELYcyKvfJG_-28" vertex="1" connectable="0">
                    <mxGeometry x="-0.12" y="-2" relative="1" as="geometry">
                        <mxPoint as="offset"/>
                    </mxGeometry>
                </mxCell>
                <mxCell id="yGFgOI4xTELYcyKvfJG_-40" value="财务" style="edgeStyle=none;html=1;" parent="1" source="yGFgOI4xTELYcyKvfJG_-24" target="yGFgOI4xTELYcyKvfJG_-25" edge="1">
                    <mxGeometry relative="1" as="geometry"/>
                </mxCell>
                <mxCell id="yGFgOI4xTELYcyKvfJG_-60" value="人工通知" style="edgeStyle=none;html=1;" parent="1" source="yGFgOI4xTELYcyKvfJG_-24" target="yGFgOI4xTELYcyKvfJG_-59" edge="1">
                    <mxGeometry relative="1" as="geometry"/>
                </mxCell>
                <mxCell id="yGFgOI4xTELYcyKvfJG_-24" value="甲乙科技（平台）" style="swimlane;whiteSpace=wrap;html=1;fillColor=#d80073;fontColor=#ffffff;strokeColor=#A50040;" parent="1" vertex="1">
                    <mxGeometry x="760" y="400" width="320" height="160" as="geometry"/>
                </mxCell>
                <mxCell id="yGFgOI4xTELYcyKvfJG_-21" value="采购员" style="shape=umlActor;verticalLabelPosition=bottom;verticalAlign=top;html=1;outlineConnect=0;" parent="yGFgOI4xTELYcyKvfJG_-24" vertex="1">
                    <mxGeometry x="30" y="60" width="30" height="60" as="geometry"/>
                </mxCell>
                <mxCell id="yGFgOI4xTELYcyKvfJG_-46" value="客服" style="shape=umlActor;verticalLabelPosition=bottom;verticalAlign=top;html=1;outlineConnect=0;" parent="yGFgOI4xTELYcyKvfJG_-24" vertex="1">
                    <mxGeometry x="90" y="60" width="30" height="60" as="geometry"/>
                </mxCell>
                <mxCell id="yGFgOI4xTELYcyKvfJG_-47" value="销售" style="shape=umlActor;verticalLabelPosition=bottom;verticalAlign=top;html=1;outlineConnect=0;" parent="yGFgOI4xTELYcyKvfJG_-24" vertex="1">
                    <mxGeometry x="160" y="60" width="30" height="60" as="geometry"/>
                </mxCell>
                <mxCell id="yGFgOI4xTELYcyKvfJG_-48" value="运营" style="shape=umlActor;verticalLabelPosition=bottom;verticalAlign=top;html=1;outlineConnect=0;" parent="yGFgOI4xTELYcyKvfJG_-24" vertex="1">
                    <mxGeometry x="220" y="60" width="30" height="60" as="geometry"/>
                </mxCell>
                <mxCell id="yGFgOI4xTELYcyKvfJG_-49" value="财务" style="shape=umlActor;verticalLabelPosition=bottom;verticalAlign=top;html=1;outlineConnect=0;" parent="yGFgOI4xTELYcyKvfJG_-24" vertex="1">
                    <mxGeometry x="270" y="60" width="30" height="60" as="geometry"/>
                </mxCell>
                <mxCell id="yGFgOI4xTELYcyKvfJG_-25" value="博大" style="swimlane;whiteSpace=wrap;html=1;fillColor=#1ba1e2;fontColor=#ffffff;strokeColor=#006EAF;" parent="1" vertex="1">
                    <mxGeometry x="760" y="80" width="320" height="200" as="geometry"/>
                </mxCell>
                <mxCell id="yGFgOI4xTELYcyKvfJG_-27" value="财务" style="shape=umlActor;verticalLabelPosition=bottom;verticalAlign=top;html=1;outlineConnect=0;" parent="yGFgOI4xTELYcyKvfJG_-25" vertex="1">
                    <mxGeometry x="90" y="110" width="30" height="60" as="geometry"/>
                </mxCell>
                <mxCell id="yGFgOI4xTELYcyKvfJG_-58" value="建队长" style="shape=umlActor;verticalLabelPosition=bottom;verticalAlign=top;html=1;outlineConnect=0;" parent="yGFgOI4xTELYcyKvfJG_-25" vertex="1">
                    <mxGeometry x="20" y="40" width="30" height="60" as="geometry"/>
                </mxCell>
                <mxCell id="yGFgOI4xTELYcyKvfJG_-30" value="交货" style="edgeStyle=none;html=1;" parent="1" source="yGFgOI4xTELYcyKvfJG_-26" target="yGFgOI4xTELYcyKvfJG_-23" edge="1">
                    <mxGeometry relative="1" as="geometry">
                        <mxPoint x="270" y="230" as="targetPoint"/>
                    </mxGeometry>
                </mxCell>
                <mxCell id="yGFgOI4xTELYcyKvfJG_-61" value="派单" style="edgeStyle=none;html=1;" parent="1" source="yGFgOI4xTELYcyKvfJG_-26" target="yGFgOI4xTELYcyKvfJG_-59" edge="1">
                    <mxGeometry relative="1" as="geometry"/>
                </mxCell>
                <mxCell id="yGFgOI4xTELYcyKvfJG_-26" value="供应商" style="swimlane;whiteSpace=wrap;html=1;" parent="1" vertex="1">
                    <mxGeometry x="400" y="400" width="200" height="160" as="geometry"/>
                </mxCell>
                <mxCell id="yGFgOI4xTELYcyKvfJG_-37" value="业务员" style="shape=umlActor;verticalLabelPosition=bottom;verticalAlign=top;html=1;outlineConnect=0;" parent="yGFgOI4xTELYcyKvfJG_-26" vertex="1">
                    <mxGeometry x="20" y="40" width="30" height="60" as="geometry"/>
                </mxCell>
                <mxCell id="yGFgOI4xTELYcyKvfJG_-35" style="edgeStyle=none;html=1;" parent="1" source="yGFgOI4xTELYcyKvfJG_-32" target="yGFgOI4xTELYcyKvfJG_-33" edge="1">
                    <mxGeometry relative="1" as="geometry"/>
                </mxCell>
                <mxCell id="yGFgOI4xTELYcyKvfJG_-44" value="劳务采购" style="edgeLabel;html=1;align=center;verticalAlign=middle;resizable=0;points=[];" parent="yGFgOI4xTELYcyKvfJG_-35" vertex="1" connectable="0">
                    <mxGeometry x="-0.0871" relative="1" as="geometry">
                        <mxPoint as="offset"/>
                    </mxGeometry>
                </mxCell>
                <mxCell id="yGFgOI4xTELYcyKvfJG_-36" value="接单" style="edgeStyle=none;html=1;" parent="1" source="yGFgOI4xTELYcyKvfJG_-32" target="yGFgOI4xTELYcyKvfJG_-23" edge="1">
                    <mxGeometry relative="1" as="geometry"/>
                </mxCell>
                <mxCell id="yGFgOI4xTELYcyKvfJG_-38" style="edgeStyle=none;html=1;" parent="1" source="yGFgOI4xTELYcyKvfJG_-32" target="yGFgOI4xTELYcyKvfJG_-25" edge="1">
                    <mxGeometry relative="1" as="geometry"/>
                </mxCell>
                <mxCell id="yGFgOI4xTELYcyKvfJG_-41" value="挂靠" style="edgeLabel;html=1;align=center;verticalAlign=middle;resizable=0;points=[];" parent="yGFgOI4xTELYcyKvfJG_-38" vertex="1" connectable="0">
                    <mxGeometry x="-0.0703" relative="1" as="geometry">
                        <mxPoint as="offset"/>
                    </mxGeometry>
                </mxCell>
                <mxCell id="yGFgOI4xTELYcyKvfJG_-39" style="edgeStyle=none;html=1;" parent="1" source="yGFgOI4xTELYcyKvfJG_-32" target="yGFgOI4xTELYcyKvfJG_-24" edge="1">
                    <mxGeometry relative="1" as="geometry"/>
                </mxCell>
                <mxCell id="yGFgOI4xTELYcyKvfJG_-42" value="申请采购" style="edgeLabel;html=1;align=center;verticalAlign=middle;resizable=0;points=[];" parent="yGFgOI4xTELYcyKvfJG_-39" vertex="1" connectable="0">
                    <mxGeometry x="-0.0293" y="1" relative="1" as="geometry">
                        <mxPoint as="offset"/>
                    </mxGeometry>
                </mxCell>
                <mxCell id="yGFgOI4xTELYcyKvfJG_-32" value="联营/自营客户" style="swimlane;whiteSpace=wrap;html=1;" parent="1" vertex="1">
                    <mxGeometry x="400" y="40" width="200" height="200" as="geometry"/>
                </mxCell>
                <mxCell id="yGFgOI4xTELYcyKvfJG_-20" value="联营老板" style="shape=umlActor;verticalLabelPosition=bottom;verticalAlign=top;html=1;outlineConnect=0;" parent="yGFgOI4xTELYcyKvfJG_-32" vertex="1">
                    <mxGeometry x="25" y="40" width="30" height="60" as="geometry"/>
                </mxCell>
                <mxCell id="yGFgOI4xTELYcyKvfJG_-56" value="自营" style="shape=umlActor;verticalLabelPosition=bottom;verticalAlign=top;html=1;outlineConnect=0;" parent="yGFgOI4xTELYcyKvfJG_-32" vertex="1">
                    <mxGeometry x="100" y="40" width="30" height="60" as="geometry"/>
                </mxCell>
                <mxCell id="yGFgOI4xTELYcyKvfJG_-34" style="edgeStyle=none;html=1;" parent="1" source="yGFgOI4xTELYcyKvfJG_-33" target="yGFgOI4xTELYcyKvfJG_-23" edge="1">
                    <mxGeometry relative="1" as="geometry">
                        <mxPoint x="220" y="500" as="targetPoint"/>
                    </mxGeometry>
                </mxCell>
                <mxCell id="yGFgOI4xTELYcyKvfJG_-45" value="劳务派遣" style="edgeLabel;html=1;align=center;verticalAlign=middle;resizable=0;points=[];" parent="yGFgOI4xTELYcyKvfJG_-34" vertex="1" connectable="0">
                    <mxGeometry x="-0.1869" y="-3" relative="1" as="geometry">
                        <mxPoint y="20" as="offset"/>
                    </mxGeometry>
                </mxCell>
                <mxCell id="yGFgOI4xTELYcyKvfJG_-33" value="劳务公司" style="swimlane;whiteSpace=wrap;html=1;" parent="1" vertex="1">
                    <mxGeometry x="40" y="80" width="200" height="200" as="geometry"/>
                </mxCell>
                <mxCell id="yGFgOI4xTELYcyKvfJG_-22" value="施工员" style="shape=umlActor;verticalLabelPosition=bottom;verticalAlign=top;html=1;outlineConnect=0;" parent="yGFgOI4xTELYcyKvfJG_-33" vertex="1">
                    <mxGeometry x="50" y="60" width="30" height="60" as="geometry"/>
                </mxCell>
                <mxCell id="yGFgOI4xTELYcyKvfJG_-62" value="送货" style="edgeStyle=none;html=1;" parent="1" source="yGFgOI4xTELYcyKvfJG_-59" target="yGFgOI4xTELYcyKvfJG_-23" edge="1">
                    <mxGeometry relative="1" as="geometry"/>
                </mxCell>
                <mxCell id="yGFgOI4xTELYcyKvfJG_-59" value="物流" style="swimlane;whiteSpace=wrap;html=1;" parent="1" vertex="1">
                    <mxGeometry x="400" y="640" width="200" height="130" as="geometry"/>
                </mxCell>
                <mxCell id="yGFgOI4xTELYcyKvfJG_-63" value="司机" style="shape=umlActor;verticalLabelPosition=bottom;verticalAlign=top;html=1;outlineConnect=0;" parent="yGFgOI4xTELYcyKvfJG_-59" vertex="1">
                    <mxGeometry x="85" y="40" width="30" height="60" as="geometry"/>
                </mxCell>
                <mxCell id="HehnoPDAnnDfOssHUMEq-1" value="材料结算" style="edgeStyle=none;html=1;fillColor=#008a00;strokeColor=#005700;" parent="1" source="yGFgOI4xTELYcyKvfJG_-27" target="yGFgOI4xTELYcyKvfJG_-26" edge="1">
                    <mxGeometry relative="1" as="geometry"/>
                </mxCell>
                <mxCell id="HehnoPDAnnDfOssHUMEq-2" value="工资结算" style="edgeStyle=none;html=1;fillColor=#008a00;strokeColor=#005700;" parent="1" source="yGFgOI4xTELYcyKvfJG_-27" target="yGFgOI4xTELYcyKvfJG_-33" edge="1">
                    <mxGeometry relative="1" as="geometry"/>
                </mxCell>
                <mxCell id="HehnoPDAnnDfOssHUMEq-3" style="edgeStyle=none;html=1;fillColor=#008a00;strokeColor=#005700;" parent="1" source="yGFgOI4xTELYcyKvfJG_-27" target="yGFgOI4xTELYcyKvfJG_-32" edge="1">
                    <mxGeometry relative="1" as="geometry"/>
                </mxCell>
            </root>
        </mxGraphModel>
    </diagram>
    <diagram id="dHOcw1cx8oONQfRhKioO" name="业务流程图">
        <mxGraphModel dx="2218" dy="1109" grid="1" gridSize="10" guides="1" tooltips="1" connect="1" arrows="1" fold="1" page="1" pageScale="1" pageWidth="1169" pageHeight="827" math="0" shadow="0">
            <root>
                <mxCell id="0"/>
                <mxCell id="1" parent="0"/>
                <mxCell id="-X4yPK9liKS6kTukss70-15" value="Pool" style="swimlane;childLayout=stackLayout;resizeParent=1;resizeParentMax=0;startSize=20;html=1;" parent="1" vertex="1">
                    <mxGeometry x="40" y="40" width="1210" height="1720" as="geometry"/>
                </mxCell>
                <mxCell id="-X4yPK9liKS6kTukss70-16" value="联营/自营" style="swimlane;startSize=20;html=1;" parent="-X4yPK9liKS6kTukss70-15" vertex="1">
                    <mxGeometry y="20" width="360" height="1700" as="geometry"/>
                </mxCell>
                <mxCell id="-X4yPK9liKS6kTukss70-1" value="自营/联营老板" style="shape=umlActor;verticalLabelPosition=bottom;verticalAlign=top;html=1;outlineConnect=0;" parent="-X4yPK9liKS6kTukss70-16" vertex="1">
                    <mxGeometry x="125" y="90" width="30" height="60" as="geometry"/>
                </mxCell>
                <mxCell id="iLM9YO716UI4PDtrw6Ez-2" value="" style="edgeStyle=none;html=1;" parent="-X4yPK9liKS6kTukss70-16" source="-X4yPK9liKS6kTukss70-4" target="iLM9YO716UI4PDtrw6Ez-1" edge="1">
                    <mxGeometry relative="1" as="geometry"/>
                </mxCell>
                <mxCell id="-X4yPK9liKS6kTukss70-4" value="甲方接单" style="whiteSpace=wrap;html=1;verticalAlign=middle;" parent="-X4yPK9liKS6kTukss70-16" vertex="1">
                    <mxGeometry x="80" y="340" width="120" height="40" as="geometry"/>
                </mxCell>
                <mxCell id="-X4yPK9liKS6kTukss70-5" style="edgeStyle=none;html=1;" parent="-X4yPK9liKS6kTukss70-16" source="-X4yPK9liKS6kTukss70-1" target="-X4yPK9liKS6kTukss70-4" edge="1">
                    <mxGeometry relative="1" as="geometry"/>
                </mxCell>
                <mxCell id="iLM9YO716UI4PDtrw6Ez-1" value="签订施工合同" style="whiteSpace=wrap;html=1;verticalAlign=middle;" parent="-X4yPK9liKS6kTukss70-16" vertex="1">
                    <mxGeometry x="80" y="420" width="120" height="40" as="geometry"/>
                </mxCell>
                <mxCell id="iLM9YO716UI4PDtrw6Ez-18" value="" style="edgeStyle=none;html=1;" parent="-X4yPK9liKS6kTukss70-16" source="iLM9YO716UI4PDtrw6Ez-16" target="iLM9YO716UI4PDtrw6Ez-17" edge="1">
                    <mxGeometry relative="1" as="geometry"/>
                </mxCell>
                <mxCell id="iLM9YO716UI4PDtrw6Ez-16" value="修改合同" style="whiteSpace=wrap;html=1;verticalAlign=middle;" parent="-X4yPK9liKS6kTukss70-16" vertex="1">
                    <mxGeometry x="80" y="500" width="120" height="40" as="geometry"/>
                </mxCell>
                <mxCell id="iLM9YO716UI4PDtrw6Ez-17" value="合同定稿" style="whiteSpace=wrap;html=1;verticalAlign=middle;" parent="-X4yPK9liKS6kTukss70-16" vertex="1">
                    <mxGeometry x="80" y="580" width="120" height="40" as="geometry"/>
                </mxCell>
                <mxCell id="iLM9YO716UI4PDtrw6Ez-25" value="" style="edgeStyle=none;html=1;exitX=0.5;exitY=1;exitDx=0;exitDy=0;" parent="-X4yPK9liKS6kTukss70-16" source="iLM9YO716UI4PDtrw6Ez-34" target="iLM9YO716UI4PDtrw6Ez-100" edge="1">
                    <mxGeometry relative="1" as="geometry"/>
                </mxCell>
                <mxCell id="iLM9YO716UI4PDtrw6Ez-35" value="" style="edgeStyle=none;html=1;" parent="-X4yPK9liKS6kTukss70-16" source="iLM9YO716UI4PDtrw6Ez-22" target="iLM9YO716UI4PDtrw6Ez-34" edge="1">
                    <mxGeometry relative="1" as="geometry"/>
                </mxCell>
                <mxCell id="iLM9YO716UI4PDtrw6Ez-22" value="甲方盖章" style="whiteSpace=wrap;html=1;verticalAlign=middle;" parent="-X4yPK9liKS6kTukss70-16" vertex="1">
                    <mxGeometry x="80" y="660" width="120" height="40" as="geometry"/>
                </mxCell>
                <mxCell id="iLM9YO716UI4PDtrw6Ez-24" value="现场施工" style="whiteSpace=wrap;html=1;verticalAlign=middle;" parent="-X4yPK9liKS6kTukss70-16" vertex="1">
                    <mxGeometry x="80" y="1220" width="120" height="40" as="geometry"/>
                </mxCell>
                <mxCell id="iLM9YO716UI4PDtrw6Ez-34" value="施工合同" style="whiteSpace=wrap;html=1;verticalAlign=middle;" parent="-X4yPK9liKS6kTukss70-16" vertex="1">
                    <mxGeometry x="80" y="740" width="120" height="40" as="geometry"/>
                </mxCell>
                <mxCell id="iLM9YO716UI4PDtrw6Ez-117" style="edgeStyle=none;html=1;" parent="-X4yPK9liKS6kTukss70-16" source="iLM9YO716UI4PDtrw6Ez-76" target="iLM9YO716UI4PDtrw6Ez-115" edge="1">
                    <mxGeometry relative="1" as="geometry"/>
                </mxCell>
                <mxCell id="iLM9YO716UI4PDtrw6Ez-130" style="edgeStyle=none;html=1;" parent="-X4yPK9liKS6kTukss70-16" source="iLM9YO716UI4PDtrw6Ez-76" target="iLM9YO716UI4PDtrw6Ez-128" edge="1">
                    <mxGeometry relative="1" as="geometry"/>
                </mxCell>
                <mxCell id="iLM9YO716UI4PDtrw6Ez-76" value="施工员" style="shape=umlActor;verticalLabelPosition=bottom;verticalAlign=top;html=1;outlineConnect=0;" parent="-X4yPK9liKS6kTukss70-16" vertex="1">
                    <mxGeometry x="260" y="1210" width="30" height="60" as="geometry"/>
                </mxCell>
                <mxCell id="iLM9YO716UI4PDtrw6Ez-75" value="" style="edgeStyle=none;html=1;" parent="-X4yPK9liKS6kTukss70-16" source="iLM9YO716UI4PDtrw6Ez-24" target="iLM9YO716UI4PDtrw6Ez-76" edge="1">
                    <mxGeometry relative="1" as="geometry"/>
                </mxCell>
                <mxCell id="iLM9YO716UI4PDtrw6Ez-97" value="采购员" style="shape=umlActor;verticalLabelPosition=bottom;verticalAlign=top;html=1;outlineConnect=0;" parent="-X4yPK9liKS6kTukss70-16" vertex="1">
                    <mxGeometry x="270" y="810" width="30" height="60" as="geometry"/>
                </mxCell>
                <mxCell id="iLM9YO716UI4PDtrw6Ez-101" style="edgeStyle=none;html=1;" parent="-X4yPK9liKS6kTukss70-16" source="iLM9YO716UI4PDtrw6Ez-100" target="iLM9YO716UI4PDtrw6Ez-24" edge="1">
                    <mxGeometry relative="1" as="geometry"/>
                </mxCell>
                <mxCell id="iLM9YO716UI4PDtrw6Ez-102" style="edgeStyle=none;html=1;" parent="-X4yPK9liKS6kTukss70-16" source="iLM9YO716UI4PDtrw6Ez-100" target="iLM9YO716UI4PDtrw6Ez-97" edge="1">
                    <mxGeometry relative="1" as="geometry"/>
                </mxCell>
                <mxCell id="iLM9YO716UI4PDtrw6Ez-100" value="采购清单" style="html=1;strokeWidth=2;shape=manualInput;whiteSpace=wrap;rounded=1;size=26;arcSize=11;" parent="-X4yPK9liKS6kTukss70-16" vertex="1">
                    <mxGeometry x="90" y="820" width="100" height="60" as="geometry"/>
                </mxCell>
                <mxCell id="iLM9YO716UI4PDtrw6Ez-113" value="确认发货" style="whiteSpace=wrap;html=1;verticalAlign=middle;" parent="-X4yPK9liKS6kTukss70-16" vertex="1">
                    <mxGeometry x="220" y="1540" width="120" height="40" as="geometry"/>
                </mxCell>
                <mxCell id="iLM9YO716UI4PDtrw6Ez-118" style="edgeStyle=none;html=1;" parent="-X4yPK9liKS6kTukss70-16" source="iLM9YO716UI4PDtrw6Ez-115" target="iLM9YO716UI4PDtrw6Ez-113" edge="1">
                    <mxGeometry relative="1" as="geometry"/>
                </mxCell>
                <mxCell id="iLM9YO716UI4PDtrw6Ez-115" value="确认" style="rhombus;whiteSpace=wrap;html=1;" parent="-X4yPK9liKS6kTukss70-16" vertex="1">
                    <mxGeometry x="240" y="1460" width="80" height="40" as="geometry"/>
                </mxCell>
                <mxCell id="iLM9YO716UI4PDtrw6Ez-128" value="确认签收" style="whiteSpace=wrap;html=1;verticalAlign=middle;" parent="-X4yPK9liKS6kTukss70-16" vertex="1">
                    <mxGeometry x="80" y="1620" width="120" height="40" as="geometry"/>
                </mxCell>
                <mxCell id="-X4yPK9liKS6kTukss70-17" value="甲乙平台" style="swimlane;startSize=20;html=1;" parent="-X4yPK9liKS6kTukss70-15" vertex="1">
                    <mxGeometry x="360" y="20" width="630" height="1700" as="geometry"/>
                </mxCell>
                <mxCell id="iLM9YO716UI4PDtrw6Ez-47" value="" style="edgeStyle=none;html=1;" parent="-X4yPK9liKS6kTukss70-17" source="-X4yPK9liKS6kTukss70-8" target="iLM9YO716UI4PDtrw6Ez-46" edge="1">
                    <mxGeometry relative="1" as="geometry"/>
                </mxCell>
                <mxCell id="-X4yPK9liKS6kTukss70-8" value="供应商开户" style="whiteSpace=wrap;html=1;verticalAlign=middle;" parent="-X4yPK9liKS6kTukss70-17" vertex="1">
                    <mxGeometry x="320" y="100" width="120" height="40" as="geometry"/>
                </mxCell>
                <mxCell id="-X4yPK9liKS6kTukss70-6" value="甲乙平台" style="whiteSpace=wrap;html=1;verticalAlign=middle;" parent="-X4yPK9liKS6kTukss70-17" vertex="1">
                    <mxGeometry x="160" y="40" width="120" height="40" as="geometry"/>
                </mxCell>
                <mxCell id="-X4yPK9liKS6kTukss70-9" value="" style="edgeStyle=none;html=1;" parent="-X4yPK9liKS6kTukss70-17" source="-X4yPK9liKS6kTukss70-6" target="-X4yPK9liKS6kTukss70-8" edge="1">
                    <mxGeometry relative="1" as="geometry"/>
                </mxCell>
                <mxCell id="iLM9YO716UI4PDtrw6Ez-4" value="" style="edgeStyle=none;html=1;" parent="-X4yPK9liKS6kTukss70-17" source="-X4yPK9liKS6kTukss70-10" target="-X4yPK9liKS6kTukss70-2" edge="1">
                    <mxGeometry relative="1" as="geometry"/>
                </mxCell>
                <mxCell id="-X4yPK9liKS6kTukss70-10" value="自营/联营老板开户" style="whiteSpace=wrap;html=1;verticalAlign=middle;" parent="-X4yPK9liKS6kTukss70-17" vertex="1">
                    <mxGeometry x="35" y="100" width="120" height="40" as="geometry"/>
                </mxCell>
                <mxCell id="-X4yPK9liKS6kTukss70-14" style="edgeStyle=none;html=1;" parent="-X4yPK9liKS6kTukss70-17" source="-X4yPK9liKS6kTukss70-6" target="-X4yPK9liKS6kTukss70-10" edge="1">
                    <mxGeometry relative="1" as="geometry"/>
                </mxCell>
                <mxCell id="iLM9YO716UI4PDtrw6Ez-31" style="edgeStyle=none;html=1;" parent="-X4yPK9liKS6kTukss70-17" source="-X4yPK9liKS6kTukss70-13" target="iLM9YO716UI4PDtrw6Ez-104" edge="1">
                    <mxGeometry relative="1" as="geometry"/>
                </mxCell>
                <mxCell id="iLM9YO716UI4PDtrw6Ez-33" value="" style="edgeStyle=none;html=1;" parent="-X4yPK9liKS6kTukss70-17" source="iLM9YO716UI4PDtrw6Ez-86" target="iLM9YO716UI4PDtrw6Ez-104" edge="1">
                    <mxGeometry relative="1" as="geometry">
                        <mxPoint x="220" y="850" as="sourcePoint"/>
                        <mxPoint x="160" y="840" as="targetPoint"/>
                    </mxGeometry>
                </mxCell>
                <mxCell id="-X4yPK9liKS6kTukss70-13" value="采购员" style="shape=umlActor;verticalLabelPosition=bottom;verticalAlign=top;html=1;outlineConnect=0;" parent="-X4yPK9liKS6kTukss70-17" vertex="1">
                    <mxGeometry x="225" y="490" width="30" height="60" as="geometry"/>
                </mxCell>
                <mxCell id="iLM9YO716UI4PDtrw6Ez-3" value="签订挂靠合同" style="whiteSpace=wrap;html=1;verticalAlign=middle;" parent="-X4yPK9liKS6kTukss70-17" vertex="1">
                    <mxGeometry x="35" y="340" width="120" height="40" as="geometry"/>
                </mxCell>
                <mxCell id="iLM9YO716UI4PDtrw6Ez-6" value="" style="edgeStyle=none;html=1;" parent="-X4yPK9liKS6kTukss70-17" source="-X4yPK9liKS6kTukss70-2" target="iLM9YO716UI4PDtrw6Ez-5" edge="1">
                    <mxGeometry relative="1" as="geometry"/>
                </mxCell>
                <mxCell id="-X4yPK9liKS6kTukss70-2" value="挂靠博大" style="whiteSpace=wrap;html=1;verticalAlign=middle;" parent="-X4yPK9liKS6kTukss70-17" vertex="1">
                    <mxGeometry x="35" y="180" width="120" height="40" as="geometry"/>
                </mxCell>
                <mxCell id="iLM9YO716UI4PDtrw6Ez-7" value="过审" style="edgeStyle=none;html=1;" parent="-X4yPK9liKS6kTukss70-17" source="iLM9YO716UI4PDtrw6Ez-5" target="iLM9YO716UI4PDtrw6Ez-3" edge="1">
                    <mxGeometry relative="1" as="geometry"/>
                </mxCell>
                <mxCell id="iLM9YO716UI4PDtrw6Ez-5" value="审核" style="rhombus;whiteSpace=wrap;html=1;" parent="-X4yPK9liKS6kTukss70-17" vertex="1">
                    <mxGeometry x="55" y="260" width="80" height="40" as="geometry"/>
                </mxCell>
                <mxCell id="iLM9YO716UI4PDtrw6Ez-21" value="" style="edgeStyle=none;html=1;" parent="-X4yPK9liKS6kTukss70-17" source="iLM9YO716UI4PDtrw6Ez-38" target="iLM9YO716UI4PDtrw6Ez-20" edge="1">
                    <mxGeometry relative="1" as="geometry">
                        <mxPoint x="95" y="620" as="sourcePoint"/>
                    </mxGeometry>
                </mxCell>
                <mxCell id="iLM9YO716UI4PDtrw6Ez-13" value="" style="edgeStyle=none;html=1;" parent="-X4yPK9liKS6kTukss70-17" source="iLM9YO716UI4PDtrw6Ez-12" target="iLM9YO716UI4PDtrw6Ez-38" edge="1">
                    <mxGeometry relative="1" as="geometry">
                        <mxPoint x="95" y="580" as="targetPoint"/>
                    </mxGeometry>
                </mxCell>
                <mxCell id="iLM9YO716UI4PDtrw6Ez-12" value="审核" style="rhombus;whiteSpace=wrap;html=1;" parent="-X4yPK9liKS6kTukss70-17" vertex="1">
                    <mxGeometry x="55" y="500" width="80" height="40" as="geometry"/>
                </mxCell>
                <mxCell id="iLM9YO716UI4PDtrw6Ez-20" value="博大盖章" style="whiteSpace=wrap;html=1;verticalAlign=middle;" parent="-X4yPK9liKS6kTukss70-17" vertex="1">
                    <mxGeometry x="35" y="660" width="120" height="40" as="geometry"/>
                </mxCell>
                <mxCell id="iLM9YO716UI4PDtrw6Ez-42" value="" style="edgeStyle=none;html=1;" parent="-X4yPK9liKS6kTukss70-17" source="iLM9YO716UI4PDtrw6Ez-26" target="iLM9YO716UI4PDtrw6Ez-56" edge="1">
                    <mxGeometry relative="1" as="geometry">
                        <mxPoint x="380" y="900" as="targetPoint"/>
                    </mxGeometry>
                </mxCell>
                <mxCell id="iLM9YO716UI4PDtrw6Ez-43" style="edgeStyle=none;html=1;" parent="-X4yPK9liKS6kTukss70-17" source="iLM9YO716UI4PDtrw6Ez-26" target="iLM9YO716UI4PDtrw6Ez-81" edge="1">
                    <mxGeometry relative="1" as="geometry">
                        <mxPoint x="380" y="424" as="targetPoint"/>
                    </mxGeometry>
                </mxCell>
                <mxCell id="iLM9YO716UI4PDtrw6Ez-26" value="询价/议价/撮合" style="whiteSpace=wrap;html=1;verticalAlign=middle;" parent="-X4yPK9liKS6kTukss70-17" vertex="1">
                    <mxGeometry x="320" y="820" width="120" height="40" as="geometry"/>
                </mxCell>
                <mxCell id="iLM9YO716UI4PDtrw6Ez-29" style="edgeStyle=none;html=1;" parent="-X4yPK9liKS6kTukss70-17" source="iLM9YO716UI4PDtrw6Ez-28" target="iLM9YO716UI4PDtrw6Ez-5" edge="1">
                    <mxGeometry relative="1" as="geometry"/>
                </mxCell>
                <mxCell id="iLM9YO716UI4PDtrw6Ez-30" style="edgeStyle=none;html=1;" parent="-X4yPK9liKS6kTukss70-17" source="iLM9YO716UI4PDtrw6Ez-28" target="iLM9YO716UI4PDtrw6Ez-12" edge="1">
                    <mxGeometry relative="1" as="geometry"/>
                </mxCell>
                <mxCell id="iLM9YO716UI4PDtrw6Ez-58" style="edgeStyle=none;html=1;" parent="-X4yPK9liKS6kTukss70-17" source="iLM9YO716UI4PDtrw6Ez-28" target="iLM9YO716UI4PDtrw6Ez-56" edge="1">
                    <mxGeometry relative="1" as="geometry"/>
                </mxCell>
                <mxCell id="iLM9YO716UI4PDtrw6Ez-28" value="法务" style="shape=umlActor;verticalLabelPosition=bottom;verticalAlign=top;html=1;outlineConnect=0;" parent="-X4yPK9liKS6kTukss70-17" vertex="1">
                    <mxGeometry x="160" y="490" width="30" height="60" as="geometry"/>
                </mxCell>
                <mxCell id="iLM9YO716UI4PDtrw6Ez-39" value="" style="edgeStyle=none;html=1;" parent="-X4yPK9liKS6kTukss70-17" source="iLM9YO716UI4PDtrw6Ez-36" target="iLM9YO716UI4PDtrw6Ez-86" edge="1">
                    <mxGeometry relative="1" as="geometry">
                        <mxPoint x="100" y="820" as="targetPoint"/>
                    </mxGeometry>
                </mxCell>
                <mxCell id="iLM9YO716UI4PDtrw6Ez-36" value="施工合同存档" style="whiteSpace=wrap;html=1;verticalAlign=middle;" parent="-X4yPK9liKS6kTukss70-17" vertex="1">
                    <mxGeometry x="40" y="740" width="120" height="40" as="geometry"/>
                </mxCell>
                <mxCell id="iLM9YO716UI4PDtrw6Ez-38" value="再审核" style="rhombus;whiteSpace=wrap;html=1;" parent="-X4yPK9liKS6kTukss70-17" vertex="1">
                    <mxGeometry x="55" y="580" width="80" height="40" as="geometry"/>
                </mxCell>
                <mxCell id="iLM9YO716UI4PDtrw6Ez-49" value="" style="edgeStyle=none;html=1;" parent="-X4yPK9liKS6kTukss70-17" source="iLM9YO716UI4PDtrw6Ez-46" target="iLM9YO716UI4PDtrw6Ez-48" edge="1">
                    <mxGeometry relative="1" as="geometry"/>
                </mxCell>
                <mxCell id="iLM9YO716UI4PDtrw6Ez-51" value="" style="edgeStyle=none;html=1;" parent="-X4yPK9liKS6kTukss70-17" source="iLM9YO716UI4PDtrw6Ez-46" target="iLM9YO716UI4PDtrw6Ez-50" edge="1">
                    <mxGeometry relative="1" as="geometry"/>
                </mxCell>
                <mxCell id="iLM9YO716UI4PDtrw6Ez-46" value="资质审核" style="rhombus;whiteSpace=wrap;html=1;" parent="-X4yPK9liKS6kTukss70-17" vertex="1">
                    <mxGeometry x="340" y="180" width="80" height="40" as="geometry"/>
                </mxCell>
                <mxCell id="iLM9YO716UI4PDtrw6Ez-53" value="" style="edgeStyle=none;html=1;" parent="-X4yPK9liKS6kTukss70-17" source="iLM9YO716UI4PDtrw6Ez-48" target="iLM9YO716UI4PDtrw6Ez-52" edge="1">
                    <mxGeometry relative="1" as="geometry"/>
                </mxCell>
                <mxCell id="iLM9YO716UI4PDtrw6Ez-48" value="战略合作" style="rhombus;whiteSpace=wrap;html=1;" parent="-X4yPK9liKS6kTukss70-17" vertex="1">
                    <mxGeometry x="200" y="180" width="80" height="40" as="geometry"/>
                </mxCell>
                <mxCell id="iLM9YO716UI4PDtrw6Ez-55" style="edgeStyle=none;html=1;" parent="-X4yPK9liKS6kTukss70-17" source="iLM9YO716UI4PDtrw6Ez-50" target="iLM9YO716UI4PDtrw6Ez-81" edge="1">
                    <mxGeometry relative="1" as="geometry">
                        <mxPoint x="395.686274509804" y="384" as="targetPoint"/>
                    </mxGeometry>
                </mxCell>
                <mxCell id="iLM9YO716UI4PDtrw6Ez-50" value="普通供应商" style="whiteSpace=wrap;html=1;verticalAlign=middle;" parent="-X4yPK9liKS6kTukss70-17" vertex="1">
                    <mxGeometry x="480" y="180" width="120" height="40" as="geometry"/>
                </mxCell>
                <mxCell id="iLM9YO716UI4PDtrw6Ez-54" style="edgeStyle=none;html=1;" parent="-X4yPK9liKS6kTukss70-17" source="iLM9YO716UI4PDtrw6Ez-52" target="iLM9YO716UI4PDtrw6Ez-81" edge="1">
                    <mxGeometry relative="1" as="geometry">
                        <mxPoint x="357.41935483870975" y="384" as="targetPoint"/>
                    </mxGeometry>
                </mxCell>
                <mxCell id="iLM9YO716UI4PDtrw6Ez-103" style="edgeStyle=none;html=1;" parent="-X4yPK9liKS6kTukss70-17" source="iLM9YO716UI4PDtrw6Ez-52" target="-X4yPK9liKS6kTukss70-13" edge="1">
                    <mxGeometry relative="1" as="geometry"/>
                </mxCell>
                <mxCell id="iLM9YO716UI4PDtrw6Ez-52" value="战略合作供应商" style="whiteSpace=wrap;html=1;verticalAlign=middle;" parent="-X4yPK9liKS6kTukss70-17" vertex="1">
                    <mxGeometry x="180" y="260" width="120" height="40" as="geometry"/>
                </mxCell>
                <mxCell id="iLM9YO716UI4PDtrw6Ez-60" value="" style="edgeStyle=none;html=1;" parent="-X4yPK9liKS6kTukss70-17" source="iLM9YO716UI4PDtrw6Ez-56" target="iLM9YO716UI4PDtrw6Ez-59" edge="1">
                    <mxGeometry relative="1" as="geometry"/>
                </mxCell>
                <mxCell id="iLM9YO716UI4PDtrw6Ez-56" value="审核" style="rhombus;whiteSpace=wrap;html=1;" parent="-X4yPK9liKS6kTukss70-17" vertex="1">
                    <mxGeometry x="340" y="960" width="80" height="40" as="geometry"/>
                </mxCell>
                <mxCell id="iLM9YO716UI4PDtrw6Ez-72" value="" style="edgeStyle=none;html=1;" parent="-X4yPK9liKS6kTukss70-17" source="iLM9YO716UI4PDtrw6Ez-59" target="iLM9YO716UI4PDtrw6Ez-71" edge="1">
                    <mxGeometry relative="1" as="geometry"/>
                </mxCell>
                <mxCell id="iLM9YO716UI4PDtrw6Ez-59" value="合同盖章" style="whiteSpace=wrap;html=1;verticalAlign=middle;" parent="-X4yPK9liKS6kTukss70-17" vertex="1">
                    <mxGeometry x="320" y="1040" width="120" height="40" as="geometry"/>
                </mxCell>
                <mxCell id="iLM9YO716UI4PDtrw6Ez-64" value="采购合同模版" style="whiteSpace=wrap;html=1;verticalAlign=middle;" parent="-X4yPK9liKS6kTukss70-17" vertex="1">
                    <mxGeometry x="480" y="820" width="120" height="40" as="geometry"/>
                </mxCell>
                <mxCell id="iLM9YO716UI4PDtrw6Ez-65" value="" style="edgeStyle=none;html=1;" parent="-X4yPK9liKS6kTukss70-17" source="iLM9YO716UI4PDtrw6Ez-26" target="iLM9YO716UI4PDtrw6Ez-64" edge="1">
                    <mxGeometry relative="1" as="geometry"/>
                </mxCell>
                <mxCell id="iLM9YO716UI4PDtrw6Ez-71" value="合同存档" style="whiteSpace=wrap;html=1;verticalAlign=middle;" parent="-X4yPK9liKS6kTukss70-17" vertex="1">
                    <mxGeometry x="320" y="1130" width="120" height="40" as="geometry"/>
                </mxCell>
                <mxCell id="iLM9YO716UI4PDtrw6Ez-83" style="edgeStyle=none;html=1;" parent="-X4yPK9liKS6kTukss70-17" source="iLM9YO716UI4PDtrw6Ez-74" target="iLM9YO716UI4PDtrw6Ez-86" edge="1">
                    <mxGeometry relative="1" as="geometry">
                        <mxPoint x="100" y="860" as="targetPoint"/>
                    </mxGeometry>
                </mxCell>
                <mxCell id="iLM9YO716UI4PDtrw6Ez-85" style="edgeStyle=none;html=1;" parent="-X4yPK9liKS6kTukss70-17" source="iLM9YO716UI4PDtrw6Ez-74" target="iLM9YO716UI4PDtrw6Ez-84" edge="1">
                    <mxGeometry relative="1" as="geometry"/>
                </mxCell>
                <mxCell id="iLM9YO716UI4PDtrw6Ez-74" value="下料通知" style="whiteSpace=wrap;html=1;verticalAlign=middle;" parent="-X4yPK9liKS6kTukss70-17" vertex="1">
                    <mxGeometry x="40" y="1220" width="120" height="40" as="geometry"/>
                </mxCell>
                <mxCell id="iLM9YO716UI4PDtrw6Ez-81" value="供应数据库" style="shape=parallelogram;html=1;strokeWidth=2;perimeter=parallelogramPerimeter;whiteSpace=wrap;rounded=1;arcSize=12;size=0.23;" parent="-X4yPK9liKS6kTukss70-17" vertex="1">
                    <mxGeometry x="305" y="380" width="150" height="40" as="geometry"/>
                </mxCell>
                <mxCell id="iLM9YO716UI4PDtrw6Ez-87" style="edgeStyle=none;html=1;" parent="-X4yPK9liKS6kTukss70-17" source="iLM9YO716UI4PDtrw6Ez-84" target="iLM9YO716UI4PDtrw6Ez-80" edge="1">
                    <mxGeometry relative="1" as="geometry"/>
                </mxCell>
                <mxCell id="iLM9YO716UI4PDtrw6Ez-84" value="勾选/输入" style="html=1;strokeWidth=2;shape=manualInput;whiteSpace=wrap;rounded=1;size=13;arcSize=11;" parent="-X4yPK9liKS6kTukss70-17" vertex="1">
                    <mxGeometry x="200" y="1210" width="120" height="50" as="geometry"/>
                </mxCell>
                <mxCell id="iLM9YO716UI4PDtrw6Ez-80" value="下料单" style="strokeWidth=2;html=1;shape=mxgraph.flowchart.stored_data;whiteSpace=wrap;" parent="-X4yPK9liKS6kTukss70-17" vertex="1">
                    <mxGeometry x="360" y="1220" width="120" height="40" as="geometry"/>
                </mxCell>
                <mxCell id="iLM9YO716UI4PDtrw6Ez-106" style="edgeStyle=none;html=1;" parent="-X4yPK9liKS6kTukss70-17" source="iLM9YO716UI4PDtrw6Ez-86" target="iLM9YO716UI4PDtrw6Ez-26" edge="1">
                    <mxGeometry relative="1" as="geometry"/>
                </mxCell>
                <mxCell id="iLM9YO716UI4PDtrw6Ez-86" value="材料清单表" style="strokeWidth=2;html=1;shape=mxgraph.flowchart.direct_data;whiteSpace=wrap;align=center;" parent="-X4yPK9liKS6kTukss70-17" vertex="1">
                    <mxGeometry x="50" y="820" width="100" height="40" as="geometry"/>
                </mxCell>
                <mxCell id="iLM9YO716UI4PDtrw6Ez-89" value="已确认" style="whiteSpace=wrap;html=1;verticalAlign=middle;" parent="-X4yPK9liKS6kTukss70-17" vertex="1">
                    <mxGeometry x="40" y="1300" width="120" height="40" as="geometry"/>
                </mxCell>
                <mxCell id="iLM9YO716UI4PDtrw6Ez-104" value="材料&lt;br&gt;数据库" style="strokeWidth=2;html=1;shape=mxgraph.flowchart.database;whiteSpace=wrap;verticalAlign=bottom;" parent="-X4yPK9liKS6kTukss70-17" vertex="1">
                    <mxGeometry x="210" y="730" width="60" height="60" as="geometry"/>
                </mxCell>
                <mxCell id="iLM9YO716UI4PDtrw6Ez-109" value="时间/地点/交接人/物流" style="whiteSpace=wrap;html=1;verticalAlign=middle;" parent="-X4yPK9liKS6kTukss70-17" vertex="1">
                    <mxGeometry x="240" y="1460" width="160" height="40" as="geometry"/>
                </mxCell>
                <mxCell id="iLM9YO716UI4PDtrw6Ez-126" value="以发货" style="whiteSpace=wrap;html=1;verticalAlign=middle;" parent="-X4yPK9liKS6kTukss70-17" vertex="1">
                    <mxGeometry x="40" y="1620" width="120" height="40" as="geometry"/>
                </mxCell>
                <mxCell id="-X4yPK9liKS6kTukss70-7" style="edgeStyle=none;html=1;" parent="-X4yPK9liKS6kTukss70-15" source="-X4yPK9liKS6kTukss70-1" target="-X4yPK9liKS6kTukss70-10" edge="1">
                    <mxGeometry relative="1" as="geometry"/>
                </mxCell>
                <mxCell id="-X4yPK9liKS6kTukss70-12" style="edgeStyle=none;html=1;" parent="-X4yPK9liKS6kTukss70-15" source="-X4yPK9liKS6kTukss70-11" target="-X4yPK9liKS6kTukss70-8" edge="1">
                    <mxGeometry relative="1" as="geometry"/>
                </mxCell>
                <mxCell id="iLM9YO716UI4PDtrw6Ez-8" value="驳回" style="edgeStyle=none;html=1;" parent="-X4yPK9liKS6kTukss70-15" source="iLM9YO716UI4PDtrw6Ez-5" target="-X4yPK9liKS6kTukss70-1" edge="1">
                    <mxGeometry relative="1" as="geometry"/>
                </mxCell>
                <mxCell id="iLM9YO716UI4PDtrw6Ez-9" style="edgeStyle=none;html=1;" parent="-X4yPK9liKS6kTukss70-15" source="iLM9YO716UI4PDtrw6Ez-3" target="-X4yPK9liKS6kTukss70-4" edge="1">
                    <mxGeometry relative="1" as="geometry"/>
                </mxCell>
                <mxCell id="iLM9YO716UI4PDtrw6Ez-11" value="送审" style="edgeStyle=none;html=1;" parent="-X4yPK9liKS6kTukss70-15" source="iLM9YO716UI4PDtrw6Ez-1" target="iLM9YO716UI4PDtrw6Ez-12" edge="1">
                    <mxGeometry relative="1" as="geometry">
                        <Array as="points">
                            <mxPoint x="415" y="460"/>
                        </Array>
                    </mxGeometry>
                </mxCell>
                <mxCell id="iLM9YO716UI4PDtrw6Ez-14" value="修改" style="edgeStyle=none;html=1;" parent="-X4yPK9liKS6kTukss70-15" source="iLM9YO716UI4PDtrw6Ez-12" target="iLM9YO716UI4PDtrw6Ez-16" edge="1">
                    <mxGeometry relative="1" as="geometry"/>
                </mxCell>
                <mxCell id="iLM9YO716UI4PDtrw6Ez-19" style="edgeStyle=none;html=1;" parent="-X4yPK9liKS6kTukss70-15" source="iLM9YO716UI4PDtrw6Ez-17" target="iLM9YO716UI4PDtrw6Ez-38" edge="1">
                    <mxGeometry relative="1" as="geometry">
                        <mxPoint x="435" y="620" as="targetPoint"/>
                    </mxGeometry>
                </mxCell>
                <mxCell id="iLM9YO716UI4PDtrw6Ez-23" value="" style="edgeStyle=none;html=1;" parent="-X4yPK9liKS6kTukss70-15" source="iLM9YO716UI4PDtrw6Ez-20" target="iLM9YO716UI4PDtrw6Ez-22" edge="1">
                    <mxGeometry relative="1" as="geometry"/>
                </mxCell>
                <mxCell id="iLM9YO716UI4PDtrw6Ez-37" value="" style="edgeStyle=none;html=1;" parent="-X4yPK9liKS6kTukss70-15" source="iLM9YO716UI4PDtrw6Ez-34" target="iLM9YO716UI4PDtrw6Ez-36" edge="1">
                    <mxGeometry relative="1" as="geometry"/>
                </mxCell>
                <mxCell id="iLM9YO716UI4PDtrw6Ez-61" style="edgeStyle=none;html=1;" parent="-X4yPK9liKS6kTukss70-15" source="iLM9YO716UI4PDtrw6Ez-26" target="-X4yPK9liKS6kTukss70-11" edge="1">
                    <mxGeometry relative="1" as="geometry"/>
                </mxCell>
                <mxCell id="iLM9YO716UI4PDtrw6Ez-68" style="edgeStyle=none;html=1;" parent="-X4yPK9liKS6kTukss70-15" source="iLM9YO716UI4PDtrw6Ez-64" target="iLM9YO716UI4PDtrw6Ez-67" edge="1">
                    <mxGeometry relative="1" as="geometry"/>
                </mxCell>
                <mxCell id="iLM9YO716UI4PDtrw6Ez-66" value="寄送盖章" style="edgeStyle=none;html=1;" parent="-X4yPK9liKS6kTukss70-15" source="iLM9YO716UI4PDtrw6Ez-63" target="iLM9YO716UI4PDtrw6Ez-56" edge="1">
                    <mxGeometry relative="1" as="geometry">
                        <Array as="points">
                            <mxPoint x="1155" y="1000"/>
                        </Array>
                    </mxGeometry>
                </mxCell>
                <mxCell id="iLM9YO716UI4PDtrw6Ez-62" style="edgeStyle=none;html=1;exitX=1;exitY=0.5;exitDx=0;exitDy=0;" parent="-X4yPK9liKS6kTukss70-15" source="iLM9YO716UI4PDtrw6Ez-71" target="iLM9YO716UI4PDtrw6Ez-70" edge="1">
                    <mxGeometry relative="1" as="geometry">
                        <mxPoint x="1240" y="1080" as="targetPoint"/>
                    </mxGeometry>
                </mxCell>
                <mxCell id="iLM9YO716UI4PDtrw6Ez-77" style="edgeStyle=none;html=1;" parent="-X4yPK9liKS6kTukss70-15" source="iLM9YO716UI4PDtrw6Ez-76" target="iLM9YO716UI4PDtrw6Ez-74" edge="1">
                    <mxGeometry relative="1" as="geometry"/>
                </mxCell>
                <mxCell id="iLM9YO716UI4PDtrw6Ez-88" value="短信短信" style="edgeStyle=none;html=1;" parent="-X4yPK9liKS6kTukss70-15" source="iLM9YO716UI4PDtrw6Ez-80" target="iLM9YO716UI4PDtrw6Ez-82" edge="1">
                    <mxGeometry relative="1" as="geometry"/>
                </mxCell>
                <mxCell id="iLM9YO716UI4PDtrw6Ez-92" style="edgeStyle=none;html=1;" parent="-X4yPK9liKS6kTukss70-15" source="iLM9YO716UI4PDtrw6Ez-90" target="iLM9YO716UI4PDtrw6Ez-89" edge="1">
                    <mxGeometry relative="1" as="geometry"/>
                </mxCell>
                <mxCell id="iLM9YO716UI4PDtrw6Ez-93" style="edgeStyle=none;html=1;" parent="-X4yPK9liKS6kTukss70-15" source="iLM9YO716UI4PDtrw6Ez-89" target="iLM9YO716UI4PDtrw6Ez-76" edge="1">
                    <mxGeometry relative="1" as="geometry"/>
                </mxCell>
                <mxCell id="iLM9YO716UI4PDtrw6Ez-98" style="edgeStyle=none;html=1;" parent="-X4yPK9liKS6kTukss70-15" source="iLM9YO716UI4PDtrw6Ez-97" target="iLM9YO716UI4PDtrw6Ez-86" edge="1">
                    <mxGeometry relative="1" as="geometry"/>
                </mxCell>
                <mxCell id="iLM9YO716UI4PDtrw6Ez-99" value="录入清单" style="edgeLabel;html=1;align=center;verticalAlign=middle;resizable=0;points=[];" parent="iLM9YO716UI4PDtrw6Ez-98" vertex="1" connectable="0">
                    <mxGeometry x="-0.04" y="1" relative="1" as="geometry">
                        <mxPoint as="offset"/>
                    </mxGeometry>
                </mxCell>
                <mxCell id="-X4yPK9liKS6kTukss70-18" value="供应商" style="swimlane;startSize=20;html=1;" parent="-X4yPK9liKS6kTukss70-15" vertex="1">
                    <mxGeometry x="990" y="20" width="220" height="1700" as="geometry"/>
                </mxCell>
                <mxCell id="iLM9YO716UI4PDtrw6Ez-107" style="edgeStyle=none;html=1;" parent="-X4yPK9liKS6kTukss70-18" source="-X4yPK9liKS6kTukss70-11" target="iLM9YO716UI4PDtrw6Ez-105" edge="1">
                    <mxGeometry relative="1" as="geometry"/>
                </mxCell>
                <mxCell id="-X4yPK9liKS6kTukss70-11" value="供应商" style="shape=umlActor;verticalLabelPosition=bottom;verticalAlign=top;html=1;outlineConnect=0;" parent="-X4yPK9liKS6kTukss70-18" vertex="1">
                    <mxGeometry x="105" y="90" width="30" height="60" as="geometry"/>
                </mxCell>
                <mxCell id="iLM9YO716UI4PDtrw6Ez-63" value="合同盖章" style="whiteSpace=wrap;html=1;verticalAlign=middle;" parent="-X4yPK9liKS6kTukss70-18" vertex="1">
                    <mxGeometry x="65" y="900" width="120" height="40" as="geometry"/>
                </mxCell>
                <mxCell id="iLM9YO716UI4PDtrw6Ez-69" style="edgeStyle=none;html=1;" parent="-X4yPK9liKS6kTukss70-18" source="iLM9YO716UI4PDtrw6Ez-67" target="iLM9YO716UI4PDtrw6Ez-63" edge="1">
                    <mxGeometry relative="1" as="geometry"/>
                </mxCell>
                <mxCell id="iLM9YO716UI4PDtrw6Ez-67" value="采购合同" style="whiteSpace=wrap;html=1;verticalAlign=middle;" parent="-X4yPK9liKS6kTukss70-18" vertex="1">
                    <mxGeometry x="65" y="820" width="120" height="40" as="geometry"/>
                </mxCell>
                <mxCell id="iLM9YO716UI4PDtrw6Ez-70" value="合同存档" style="whiteSpace=wrap;html=1;verticalAlign=middle;" parent="-X4yPK9liKS6kTukss70-18" vertex="1">
                    <mxGeometry x="65" y="1130" width="120" height="40" as="geometry"/>
                </mxCell>
                <mxCell id="iLM9YO716UI4PDtrw6Ez-91" value="" style="edgeStyle=none;html=1;" parent="-X4yPK9liKS6kTukss70-18" source="iLM9YO716UI4PDtrw6Ez-82" target="iLM9YO716UI4PDtrw6Ez-90" edge="1">
                    <mxGeometry relative="1" as="geometry"/>
                </mxCell>
                <mxCell id="iLM9YO716UI4PDtrw6Ez-82" value="收到通知" style="whiteSpace=wrap;html=1;verticalAlign=middle;" parent="-X4yPK9liKS6kTukss70-18" vertex="1">
                    <mxGeometry x="65" y="1220" width="120" height="40" as="geometry"/>
                </mxCell>
                <mxCell id="iLM9YO716UI4PDtrw6Ez-96" value="" style="edgeStyle=none;html=1;" parent="-X4yPK9liKS6kTukss70-18" source="iLM9YO716UI4PDtrw6Ez-90" target="iLM9YO716UI4PDtrw6Ez-95" edge="1">
                    <mxGeometry relative="1" as="geometry"/>
                </mxCell>
                <mxCell id="iLM9YO716UI4PDtrw6Ez-90" value="确认" style="rhombus;whiteSpace=wrap;html=1;" parent="-X4yPK9liKS6kTukss70-18" vertex="1">
                    <mxGeometry x="85" y="1300" width="80" height="40" as="geometry"/>
                </mxCell>
                <mxCell id="iLM9YO716UI4PDtrw6Ez-116" value="" style="edgeStyle=none;html=1;" parent="-X4yPK9liKS6kTukss70-18" source="iLM9YO716UI4PDtrw6Ez-95" target="iLM9YO716UI4PDtrw6Ez-111" edge="1">
                    <mxGeometry relative="1" as="geometry"/>
                </mxCell>
                <mxCell id="iLM9YO716UI4PDtrw6Ez-95" value="生产" style="whiteSpace=wrap;html=1;verticalAlign=middle;" parent="-X4yPK9liKS6kTukss70-18" vertex="1">
                    <mxGeometry x="65" y="1380" width="120" height="40" as="geometry"/>
                </mxCell>
                <mxCell id="iLM9YO716UI4PDtrw6Ez-105" value="录入产品" style="whiteSpace=wrap;html=1;verticalAlign=middle;" parent="-X4yPK9liKS6kTukss70-18" vertex="1">
                    <mxGeometry x="65" y="740" width="120" height="40" as="geometry"/>
                </mxCell>
                <mxCell id="iLM9YO716UI4PDtrw6Ez-111" value="以发货通知" style="whiteSpace=wrap;html=1;verticalAlign=middle;" parent="-X4yPK9liKS6kTukss70-18" vertex="1">
                    <mxGeometry x="65" y="1460" width="120" height="40" as="geometry"/>
                </mxCell>
                <mxCell id="iLM9YO716UI4PDtrw6Ez-125" style="edgeStyle=none;html=1;" parent="-X4yPK9liKS6kTukss70-18" source="iLM9YO716UI4PDtrw6Ez-122" target="iLM9YO716UI4PDtrw6Ez-124" edge="1">
                    <mxGeometry relative="1" as="geometry"/>
                </mxCell>
                <mxCell id="iLM9YO716UI4PDtrw6Ez-122" value="收到通知" style="whiteSpace=wrap;html=1;verticalAlign=middle;" parent="-X4yPK9liKS6kTukss70-18" vertex="1">
                    <mxGeometry x="65" y="1540" width="120" height="40" as="geometry"/>
                </mxCell>
                <mxCell id="iLM9YO716UI4PDtrw6Ez-124" value="发货" style="whiteSpace=wrap;html=1;verticalAlign=middle;" parent="-X4yPK9liKS6kTukss70-18" vertex="1">
                    <mxGeometry x="65" y="1620" width="120" height="40" as="geometry"/>
                </mxCell>
                <mxCell id="iLM9YO716UI4PDtrw6Ez-108" style="edgeStyle=none;html=1;" parent="-X4yPK9liKS6kTukss70-15" source="iLM9YO716UI4PDtrw6Ez-105" target="iLM9YO716UI4PDtrw6Ez-104" edge="1">
                    <mxGeometry relative="1" as="geometry"/>
                </mxCell>
                <mxCell id="iLM9YO716UI4PDtrw6Ez-112" value="" style="edgeStyle=none;html=1;entryX=1;entryY=0.5;entryDx=0;entryDy=0;" parent="-X4yPK9liKS6kTukss70-15" source="iLM9YO716UI4PDtrw6Ez-111" target="iLM9YO716UI4PDtrw6Ez-109" edge="1">
                    <mxGeometry relative="1" as="geometry">
                        <mxPoint x="740" y="1500" as="sourcePoint"/>
                        <mxPoint x="310" y="1500" as="targetPoint"/>
                    </mxGeometry>
                </mxCell>
                <mxCell id="iLM9YO716UI4PDtrw6Ez-119" style="edgeStyle=none;html=1;" parent="-X4yPK9liKS6kTukss70-15" source="iLM9YO716UI4PDtrw6Ez-115" target="iLM9YO716UI4PDtrw6Ez-109" edge="1">
                    <mxGeometry relative="1" as="geometry"/>
                </mxCell>
                <mxCell id="iLM9YO716UI4PDtrw6Ez-123" style="edgeStyle=none;html=1;" parent="-X4yPK9liKS6kTukss70-15" source="iLM9YO716UI4PDtrw6Ez-113" target="iLM9YO716UI4PDtrw6Ez-122" edge="1">
                    <mxGeometry relative="1" as="geometry"/>
                </mxCell>
                <mxCell id="iLM9YO716UI4PDtrw6Ez-127" style="edgeStyle=none;html=1;" parent="-X4yPK9liKS6kTukss70-15" source="iLM9YO716UI4PDtrw6Ez-124" target="iLM9YO716UI4PDtrw6Ez-126" edge="1">
                    <mxGeometry relative="1" as="geometry"/>
                </mxCell>
                <mxCell id="iLM9YO716UI4PDtrw6Ez-129" style="edgeStyle=none;html=1;" parent="-X4yPK9liKS6kTukss70-15" source="iLM9YO716UI4PDtrw6Ez-126" target="iLM9YO716UI4PDtrw6Ez-128" edge="1">
                    <mxGeometry relative="1" as="geometry"/>
                </mxCell>
            </root>
        </mxGraphModel>
    </diagram>
    <diagram id="oIifoQukvcGcTA-fH58A" name="第 3 页">
        <mxGraphModel dx="2218" dy="1109" grid="1" gridSize="10" guides="1" tooltips="1" connect="1" arrows="1" fold="1" page="1" pageScale="1" pageWidth="1169" pageHeight="827" math="0" shadow="0">
            <root>
                <mxCell id="0"/>
                <mxCell id="1" parent="0"/>
            </root>
        </mxGraphModel>
    </diagram>
</mxfile>